<?xml version="1.0" encoding="UTF-8" standalone="yes"?>
<!DOCTYPE svg PUBLIC "-//W3C//DTD SVG 1.1//EN" "http://www.w3.org/Graphics/SVG/1.1/DTD/svg11.dtd">

<svg width="500" height="500" viewBox="0 0 500 500" xmlns="http://www.w3.org/2000/svg" xmlns:xlink="http://www.w3.org/1999/xlink" version="1.1" baseProfile="full">
    <g transform="scale(1.000000,-1.000000) translate(0,-500)">
        <rect width="500" height="500" style="fill:rgb(254,255,255)"></rect>
        <path d="M 22.518000 1.000000 L 1.000000 143.100000 L 30.435000 143.100000 L 40.788000 58.449000 L 51.344000 143.100000 L 80.982000 143.100000 L 59.667000 1.000000 Z M 84.636000 1.000000 L 84.636000 29.014000 L 110.011000 29.014000 L 110.011000 115.086000 L 84.636000 115.086000 L 84.636000 143.100000 L 164.618000 143.100000 L 164.618000 115.086000 L 139.446000 115.086000 L 139.446000 29.014000 L 164.618000 29.014000 L 164.618000 1.000000 Z M 175.377000 1.000000 L 175.377000 143.100000 L 213.338000 143.100000 Q 233.638000 143.100000 244.092500 133.863500 Q 254.547000 124.627000 254.547000 106.560000 L 254.547000 99.658000 Q 254.547000 89.711000 249.167500 83.012000 Q 243.788000 76.313000 233.029000 73.877000 L 233.029000 70.629000 Q 255.359000 66.366000 255.359000 44.645000 L 255.359000 37.743000 Q 255.359000 19.676000 244.904500 10.338000 Q 234.450000 1.000000 214.150000 1.000000 Z M 204.812000 85.448000 L 210.496000 85.448000 Q 224.706000 85.448000 224.706000 97.222000 L 224.706000 103.921000 Q 224.706000 115.492000 210.496000 115.492000 L 204.812000 115.492000 Z M 204.812000 28.405000 L 211.308000 28.405000 Q 225.518000 28.405000 225.518000 39.976000 L 225.518000 48.096000 Q 225.518000 59.870000 211.308000 59.870000 L 204.812000 59.870000 Z M 266.118000 1.000000 L 266.118000 143.100000 L 346.100000 143.100000 L 346.100000 115.086000 L 295.756000 115.086000 L 295.756000 86.869000 L 333.717000 86.869000 L 333.717000 58.652000 L 295.756000 58.652000 L 295.756000 29.014000 L 346.100000 29.014000 L 346.100000 1.000000 Z" transform="scale(1.000000,1.000000) translate(76.449939,286.560596)" opacity="1.000000"></path>
        <path d="M 1.000000 1.000000 L 1.000000 225.000003 L 65.800000 225.000003 L 79.800000 129.320002 L 94.200000 225.000003 L 158.600000 225.000003 L 158.600000 1.000000 L 108.600000 1.000000 L 108.600000 135.080002 L 94.600000 41.000001 L 64.600000 41.000001 L 51.000000 133.160002 L 51.000000 1.000000 Z M 189.000000 1.000000 L 189.000000 225.000003 L 276.200000 225.000003 Q 309.000000 225.000003 328.200000 206.280003 Q 347.400000 187.560003 347.400000 155.240002 L 347.400000 71.080001 Q 347.400000 38.760001 328.200000 19.880000 Q 309.000000 1.000000 276.200000 1.000000 Z M 246.200000 45.160001 L 268.200000 45.160001 Q 288.200000 45.160001 288.200000 72.680001 L 288.200000 153.320002 Q 288.200000 180.840003 268.200000 180.840003 L 246.200000 180.840003 Z" transform="scale(1.000000,1.000000) translate(75.799939,56.348723)" opacity="1.000000"></path>
    </g>
</svg>